<svg xmlns="http://www.w3.org/2000/svg" version="1.1" xmlns:xlink="http://www.w3.org/1999/xlink" xmlns:svgjs="http://svgjs.dev/svgjs" width="1500" height="1500" viewBox="0 0 1500 1500"><rect width="1500" height="1500" fill="#1f0f53"></rect><g transform="matrix(0.6666666666666666,0,0,0.6666666666666666,249.39393939393938,438.5856950067477)"><svg viewBox="0 0 396 247" data-background-color="#1f0f53" preserveAspectRatio="xMidYMid meet" height="935" width="1500" xmlns="http://www.w3.org/2000/svg" xmlns:xlink="http://www.w3.org/1999/xlink"><g id="tight-bounds" transform="matrix(1,0,0,1,0.2400000000000091,-0.09999999999999432)"><svg viewBox="0 0 395.52 247.2" height="247.2" width="395.52"><g><svg></svg></g><g><svg viewBox="0 0 395.52 247.2" height="247.2" width="395.52"><g transform="matrix(1,0,0,1,138.45982337662338,47.215199999999996)"><svg viewBox="0 0 118.60035324675326 152.7696" height="152.7696" width="118.60035324675326"><g><svg viewBox="0 0 118.60035324675326 152.7696" height="152.7696" width="118.60035324675326"><g><svg viewBox="0 0 118.60035324675326 152.7696" height="152.7696" width="118.60035324675326"><g><svg viewBox="0 0 118.60035324675326 152.7696" height="152.7696" width="118.60035324675326"><g id="textblocktransform"><svg viewBox="0 0 118.60035324675326 152.7696" height="152.7696" width="118.60035324675326" id="textblock"><g><svg viewBox="0 0 118.60035324675326 152.7696" height="152.7696" width="118.60035324675326"><g transform="matrix(1,0,0,1,0,0)"><svg width="118.60035324675326" viewBox="-0.4 -34.3 26.9 34.65" height="152.7696" data-palette-color="#ffdb99"><path d="M7.7-13.3L8.35-13.3 15.05-19.45Q17-21.25 18-22.15 19-23.05 19.55-23.48 20.1-23.9 20.7-24.25L20.7-24.25 23-22.8 23-22.25Q20.2-20.6 17.53-18.7 14.85-16.8 12.35-14.7L12.35-14.7Q12.1-14.5 11.78-14.2 11.45-13.9 11.45-13.7L11.45-13.7Q11.45-13.5 11.6-13.3 11.75-13.1 11.85-12.9L11.85-12.9Q12.95-11.5 14.33-9.9 15.7-8.3 17.1-6.88 18.5-5.45 19.7-4.55 20.9-3.65 21.65-3.65L21.65-3.65Q22.9-3.65 23.83-4.2 24.75-4.75 25.55-5.6L25.55-5.6 26.5-4.6Q25.9-3.8 24.93-2.63 23.95-1.45 22.73-0.55 21.5 0.35 20.15 0.35L20.15 0.35Q19.05 0.35 18.25-0.18 17.45-0.7 16.2-2.1L16.2-2.1Q16.2-2.1 15.48-3.08 14.75-4.05 13.55-5.6 12.35-7.15 10.95-8.85 9.55-10.55 8.2-12.05L8.2-12.05 7.6-11.7 7.6-0.65 4.05 0.35 3.75 0Q3.9-5.9 4.13-11.7 4.35-17.5 4.35-23.4L4.35-23.4Q4.35-25.3 4.25-27 4.15-28.7 3.9-29.7L3.9-29.7Q3.55-30.85 2.58-31.28 1.6-31.7-0.4-31.9L-0.4-31.9-0.4-32.95-0.15-33.15 7.85-34.3 7.7-33.95 7.7-13.3Z" opacity="1" transform="matrix(1,0,0,1,0,0)" fill="#ffdb99" class="wordmark-text-0" data-fill-palette-color="primary" id="text-0"></path></svg></g></svg></g></svg></g></svg></g></svg></g></svg></g></svg></g><g><path d="M182.9 0c30.402 0 58.24 10.976 79.768 29.183l-11.147 0c-19.26-14.022-42.974-22.294-68.621-22.295-25.647 0-49.361 8.272-68.621 22.295l-11.147 0c21.528-18.206 49.366-29.183 79.768-29.183zM182.9 247.2c-30.402 0-58.24-10.976-79.768-29.183l11.147 0c19.26 14.022 42.974 22.294 68.621 22.295 25.647 0 49.361-8.272 68.621-22.295l11.147 0c-21.528 18.206-49.366 29.183-79.768 29.183z" fill="#ffdb99" stroke="transparent" data-fill-palette-color="tertiary"></path></g></svg></g><defs></defs></svg><rect width="395.52" height="247.2" fill="none" stroke="none" visibility="hidden"></rect></g></svg></g></svg>